<?xml version="1.0" encoding="utf-8"?>
<!-- Generator: Adobe Illustrator 16.0.0, SVG Export Plug-In . SVG Version: 6.00 Build 0)  -->
<!DOCTYPE svg PUBLIC "-//W3C//DTD SVG 1.1//EN" "http://www.w3.org/Graphics/SVG/1.1/DTD/svg11.dtd">
<svg version="1.1" id="Layer_1" xmlns="http://www.w3.org/2000/svg" xmlns:xlink="http://www.w3.org/1999/xlink" x="0px" y="0px"
	 width="18px" height="18px" viewBox="0 0 18 18" enable-background="new 0 0 18 18" xml:space="preserve">
<g id="LinkedIn_2_">
	<rect x="1.929" y="5.833" fill="#21242D" width="2.902" height="9.198"/>
	<path fill="#21242D" d="M12.763,5.744c-1.663,0-2.705,0.901-2.897,1.532V5.833h-3.26c0.042,0.766,0,9.198,0,9.198h3.26v-4.978
		c0-0.277-0.013-0.553,0.071-0.752c0.225-0.553,0.707-1.127,1.573-1.127c1.131,0,1.646,0.851,1.646,2.097v4.76h3.291V9.916
		C16.446,7.067,14.826,5.744,12.763,5.744z"/>
	<path fill="#21242D" d="M3.327,1.491c-1.071,0-1.773,0.688-1.773,1.597c0,0.892,0.682,1.595,1.732,1.595h0.02
		c1.091,0,1.771-0.705,1.771-1.596C5.056,2.179,4.397,1.491,3.327,1.491z"/>
</g>
</svg>
