<?xml version="1.0" encoding="utf-8"?>
<!-- Generator: Adobe Illustrator 16.0.0, SVG Export Plug-In . SVG Version: 6.00 Build 0)  -->
<!DOCTYPE svg PUBLIC "-//W3C//DTD SVG 1.1//EN" "http://www.w3.org/Graphics/SVG/1.1/DTD/svg11.dtd">
<svg version="1.1" id="Layer_1" xmlns="http://www.w3.org/2000/svg" xmlns:xlink="http://www.w3.org/1999/xlink" x="0px" y="0px"
	 width="18px" height="18px" viewBox="0 0 18 18" enable-background="new 0 0 18 18" xml:space="preserve">
<g>
	<path fill="#21242D" d="M8.998,1.046c-4.485,0-8.122,3.65-8.122,8.156c0,3.604,2.326,6.659,5.555,7.738
		c0.406,0.074,0.555-0.178,0.555-0.393c0-0.195-0.007-0.707-0.012-1.388c-2.26,0.493-2.736-1.093-2.736-1.093
		c-0.368-0.943-0.901-1.193-0.901-1.193c-0.737-0.506,0.056-0.496,0.056-0.496c0.815,0.058,1.244,0.841,1.244,0.841
		c0.725,1.247,1.9,0.886,2.364,0.677c0.073-0.527,0.284-0.887,0.517-1.09C5.712,12.599,3.815,11.9,3.815,8.774
		c0-0.891,0.316-1.617,0.837-2.188C4.567,6.38,4.289,5.552,4.731,4.429c0,0,0.682-0.22,2.234,0.836
		c0.647-0.181,1.342-0.271,2.033-0.275c0.689,0.004,1.385,0.095,2.033,0.275c1.551-1.056,2.231-0.836,2.231-0.836
		c0.443,1.123,0.165,1.951,0.081,2.158c0.521,0.57,0.836,1.297,0.836,2.188c0,3.133-1.9,3.823-3.709,4.025
		c0.291,0.251,0.551,0.749,0.551,1.51c0,1.09-0.01,1.971-0.01,2.238c0,0.217,0.146,0.471,0.559,0.391
		c3.225-1.08,5.551-4.135,5.551-7.736C17.122,4.696,13.484,1.046,8.998,1.046z"/>
</g>
</svg>
