<?xml version="1.0" encoding="utf-8"?>
<!-- Generator: Adobe Illustrator 16.0.0, SVG Export Plug-In . SVG Version: 6.00 Build 0)  -->
<!DOCTYPE svg PUBLIC "-//W3C//DTD SVG 1.1//EN" "http://www.w3.org/Graphics/SVG/1.1/DTD/svg11.dtd">
<svg version="1.1" id="Layer_1" xmlns="http://www.w3.org/2000/svg" xmlns:xlink="http://www.w3.org/1999/xlink" x="0px" y="0px"
	 width="18px" height="18px" viewBox="0 0 18 18" enable-background="new 0 0 18 18" xml:space="preserve">
<path id="Twitter_2_" fill="#21242D" d="M16.622,2.33c-0.645,0.392-1.357,0.676-2.118,0.829C13.896,2.495,13.03,2.08,12.07,2.08
	c-1.839,0-3.332,1.531-3.332,3.418c0,0.268,0.028,0.528,0.086,0.779C6.054,6.133,3.598,4.774,1.954,2.704
	C1.667,3.21,1.502,3.798,1.502,4.424c0,1.186,0.588,2.232,1.483,2.845C2.44,7.252,1.925,7.096,1.475,6.842v0.042
	c0,1.657,1.149,3.039,2.674,3.352c-0.279,0.08-0.574,0.12-0.878,0.12c-0.215,0-0.424-0.021-0.628-0.061
	c0.425,1.357,1.655,2.346,3.114,2.373c-1.14,0.917-2.579,1.464-4.14,1.464c-0.269,0-0.535-0.016-0.795-0.047
	c1.475,0.968,3.228,1.534,5.109,1.534c6.132,0,9.483-5.208,9.483-9.724c0-0.149-0.003-0.297-0.008-0.443
	c0.651-0.482,1.217-1.083,1.663-1.769c-0.597,0.272-1.24,0.456-1.915,0.538C15.844,3.798,16.373,3.128,16.622,2.33z"/>
</svg>
