<?xml version="1.0" encoding="utf-8"?>
<!-- Generator: Adobe Illustrator 16.0.0, SVG Export Plug-In . SVG Version: 6.00 Build 0)  -->
<!DOCTYPE svg PUBLIC "-//W3C//DTD SVG 1.1//EN" "http://www.w3.org/Graphics/SVG/1.1/DTD/svg11.dtd">
<svg version="1.1" id="Layer_1" xmlns="http://www.w3.org/2000/svg" xmlns:xlink="http://www.w3.org/1999/xlink" x="0px" y="0px"
	 width="18px" height="18px" viewBox="0 0 18 18" enable-background="new 0 0 18 18" xml:space="preserve">
<path id="Instagram_2_" fill="#21242D" d="M15.192,0.726H2.808c-1.066,0-1.931,0.862-1.931,1.927v12.393
	c0,1.065,0.865,1.927,1.931,1.927h12.385c1.067,0,1.931-0.862,1.931-1.927V2.653C17.123,1.588,16.26,0.726,15.192,0.726z
	 M12.555,3.265c0-0.28,0.227-0.508,0.508-0.508h1.522c0.28,0,0.508,0.228,0.508,0.508v1.523c0,0.281-0.228,0.508-0.508,0.508h-1.522
	c-0.281,0-0.508-0.227-0.508-0.508V3.265z M9.019,5.751c1.727,0,3.124,1.396,3.124,3.117c0,1.722-1.397,3.118-3.124,3.118
	c-1.725,0-3.124-1.396-3.124-3.118C5.895,7.147,7.294,5.751,9.019,5.751z M15.602,14.942c0,0.281-0.229,0.508-0.509,0.508H2.907
	c-0.28,0-0.507-0.228-0.507-0.508V7.326h2.031C4.166,7.707,4.077,8.417,4.077,8.868c0,2.719,2.217,4.931,4.942,4.931
	c2.726,0,4.942-2.212,4.942-4.931c0-0.451-0.063-1.15-0.391-1.542h2.031V14.942z"/>
</svg>
