<?xml version="1.0" encoding="utf-8"?>
<!-- Generator: Adobe Illustrator 16.0.0, SVG Export Plug-In . SVG Version: 6.00 Build 0)  -->
<!DOCTYPE svg PUBLIC "-//W3C//DTD SVG 1.1//EN" "http://www.w3.org/Graphics/SVG/1.1/DTD/svg11.dtd">
<svg version="1.1" id="Layer_1" xmlns="http://www.w3.org/2000/svg" xmlns:xlink="http://www.w3.org/1999/xlink" x="0px" y="0px"
	 width="18px" height="18px" viewBox="0 0 18 18" enable-background="new 0 0 18 18" xml:space="preserve">
<path id="Dribbble_2_" fill="#21242D" d="M16.119,5.97c-0.194-0.462-0.437-0.906-0.718-1.322c-0.278-0.412-0.598-0.8-0.95-1.152
	c-0.353-0.352-0.74-0.672-1.153-0.949c-0.415-0.281-0.86-0.522-1.322-0.719c-0.47-0.197-0.963-0.352-1.462-0.453
	c-0.513-0.105-1.041-0.159-1.567-0.159c-0.528,0-1.056,0.054-1.569,0.159c-0.5,0.102-0.993,0.256-1.462,0.453
	C5.454,2.023,5.009,2.265,4.592,2.546C4.181,2.823,3.793,3.144,3.44,3.495c-0.351,0.353-0.671,0.74-0.95,1.152
	C2.21,5.063,1.968,5.508,1.773,5.97c-0.199,0.47-0.352,0.963-0.455,1.463C1.214,7.944,1.161,8.472,1.161,8.999
	c0,0.529,0.053,1.057,0.158,1.568c0.103,0.5,0.256,0.994,0.455,1.463c0.194,0.461,0.437,0.908,0.717,1.324
	c0.279,0.411,0.599,0.798,0.95,1.15c0.353,0.352,0.74,0.67,1.152,0.949c0.417,0.282,0.862,0.523,1.323,0.719
	c0.47,0.199,0.963,0.352,1.462,0.452c0.513,0.106,1.041,0.159,1.569,0.159c0.526,0,1.054-0.053,1.567-0.159
	c0.5-0.101,0.992-0.253,1.462-0.452c0.462-0.195,0.907-0.437,1.322-0.719c0.413-0.279,0.8-0.598,1.153-0.949
	c0.352-0.353,0.671-0.739,0.95-1.15c0.281-0.416,0.524-0.863,0.718-1.324c0.199-0.469,0.352-0.963,0.455-1.463
	c0.104-0.512,0.158-1.039,0.158-1.568c0-0.527-0.053-1.055-0.158-1.566C16.471,6.933,16.317,6.439,16.119,5.97z M8.947,2.353
	c1.682,0,3.219,0.627,4.391,1.658c-0.016,0.024-0.963,1.467-3.474,2.406C8.728,4.329,7.479,2.671,7.379,2.54
	C7.881,2.417,8.406,2.353,8.947,2.353z M7.353,2.544c0,0.002,0,0.002,0,0.002S7.344,2.548,7.333,2.55
	C7.34,2.548,7.346,2.548,7.353,2.544z M6.11,2.987c0.088,0.118,1.318,1.785,2.469,3.83C5.386,7.666,2.615,7.633,2.44,7.63
	C2.871,5.57,4.254,3.862,6.11,2.987z M4.001,13.442c-1.059-1.178-1.704-2.734-1.704-4.443c0-0.07,0.004-0.141,0.006-0.209
	c0.118,0.002,3.402,0.076,6.825-0.947c0.191,0.372,0.374,0.752,0.54,1.13C9.58,8.996,9.493,9.022,9.406,9.052
	c-3.589,1.159-5.408,4.387-5.408,4.387L4.001,13.442z M8.947,15.647c-1.57,0-3.013-0.545-4.151-1.455
	c-0.024-0.019-0.052-0.04-0.085-0.068c0.033,0.028,0.061,0.05,0.085,0.068C4.835,14.222,4.86,14.24,4.86,14.24
	s1.275-2.778,5.218-4.153c0.014-0.006,0.03-0.009,0.045-0.014c0.935,2.431,1.32,4.467,1.419,5.049
	C10.745,15.46,9.867,15.647,8.947,15.647z M12.662,14.514c-0.068-0.401-0.422-2.353-1.294-4.748c2.146-0.343,4.006,0.245,4.144,0.29
	C15.215,11.907,14.153,13.506,12.662,14.514z M10.962,8.716c-0.048-0.113-0.095-0.229-0.144-0.342
	c-0.139-0.326-0.288-0.648-0.442-0.965c2.626-1.072,3.691-2.613,3.704-2.632c0.933,1.132,1.498,2.578,1.513,4.155
	C15.496,8.912,13.247,8.429,10.962,8.716z"/>
</svg>
